# xmcd
#
# Track frame offsets:
# 150
# 15902
# 30705
# 49192
# 64547
# 80995
# 97045
# 108532
# 127052
# 144617
#
# Disc length: 2064 seconds
#
#
# Revision: 0
# Processed by: cddbd v1.4PL0 Copyright (c) Steve Scherf et al.
# Submitted via: FreeRIP 2.00 
#
DISCID=8a080e0a
DTITLE=Merle Haggard - His Best
DYEAR=1985
DGENRE=Country
TTITLE0=I Don't Want To Sober Up Tonight
TTITLE1=When My Blue Moon Turns To Gold Again
TTITLE2=Make-Up And Faded Blue Jeans
TTITLE3=Love Me When You Can
TTITLE4=Leonard
TTITLE5=No One To Sing For (But The Band)
TTITLE6=Back To The Barrooms Again
TTITLE7=Wake Up
TTITLE8=Roses In The Winter
TTITLE9=The Running Kind
EXTD=MCAD-5573
EXTT0=
EXTT1=
EXTT2=
EXTT3=
EXTT4=
EXTT5=
EXTT6=
EXTT7=
EXTT8=
EXTT9=
PLAYORDER=
